<mxfile host="app.diagrams.net" modified="2024-05-19T18:39:27.443Z" agent="Mozilla/5.0 (Windows NT 10.0; Win64; x64) AppleWebKit/537.36 (KHTML, like Gecko) Chrome/124.0.0.0 Safari/537.36" etag="cAby9MjElQw9kgSBkkxX" version="24.4.4" type="device" pages="7">
  <diagram name="Главная" id="69hYp-tc0ElRpF6dS_h4">
    <mxGraphModel dx="1050" dy="530" grid="1" gridSize="10" guides="1" tooltips="1" connect="1" arrows="1" fold="1" page="1" pageScale="1" pageWidth="827" pageHeight="1169" math="0" shadow="0">
      <root>
        <mxCell id="0" />
        <mxCell id="1" parent="0" />
        <mxCell id="OIHOBmY38c9OWcAXIg8z-1" style="edgeStyle=orthogonalEdgeStyle;rounded=0;orthogonalLoop=1;jettySize=auto;html=1;exitX=0.007;exitY=0.627;exitDx=0;exitDy=0;entryX=0.5;entryY=0;entryDx=0;entryDy=0;exitPerimeter=0;" edge="1" parent="1">
          <mxGeometry relative="1" as="geometry">
            <mxPoint x="349.99999999999994" y="327.62" as="sourcePoint" />
            <mxPoint x="289.16" y="400" as="targetPoint" />
            <Array as="points">
              <mxPoint x="289.16" y="328" />
            </Array>
          </mxGeometry>
        </mxCell>
        <mxCell id="OIHOBmY38c9OWcAXIg8z-2" value="учится на" style="edgeLabel;html=1;align=center;verticalAlign=middle;resizable=0;points=[];" vertex="1" connectable="0" parent="OIHOBmY38c9OWcAXIg8z-1">
          <mxGeometry x="-0.1506" y="1" relative="1" as="geometry">
            <mxPoint x="17" y="-9" as="offset" />
          </mxGeometry>
        </mxCell>
        <mxCell id="OIHOBmY38c9OWcAXIg8z-3" style="edgeStyle=orthogonalEdgeStyle;rounded=0;orthogonalLoop=1;jettySize=auto;html=1;exitX=1;exitY=0.5;exitDx=0;exitDy=0;entryX=0.5;entryY=0;entryDx=0;entryDy=0;" edge="1" parent="1" source="OIHOBmY38c9OWcAXIg8z-5" target="OIHOBmY38c9OWcAXIg8z-8">
          <mxGeometry relative="1" as="geometry" />
        </mxCell>
        <mxCell id="OIHOBmY38c9OWcAXIg8z-4" value="читает" style="edgeLabel;html=1;align=center;verticalAlign=middle;resizable=0;points=[];" vertex="1" connectable="0" parent="OIHOBmY38c9OWcAXIg8z-3">
          <mxGeometry x="0.0154" y="-3" relative="1" as="geometry">
            <mxPoint as="offset" />
          </mxGeometry>
        </mxCell>
        <mxCell id="OIHOBmY38c9OWcAXIg8z-5" value="Студенты" style="rounded=0;whiteSpace=wrap;html=1;" vertex="1" parent="1">
          <mxGeometry x="350" y="290" width="120" height="60" as="geometry" />
        </mxCell>
        <mxCell id="OIHOBmY38c9OWcAXIg8z-6" style="edgeStyle=orthogonalEdgeStyle;rounded=0;orthogonalLoop=1;jettySize=auto;html=1;exitX=0;exitY=0.5;exitDx=0;exitDy=0;entryX=1;entryY=0.5;entryDx=0;entryDy=0;" edge="1" parent="1" source="OIHOBmY38c9OWcAXIg8z-8" target="OIHOBmY38c9OWcAXIg8z-9">
          <mxGeometry relative="1" as="geometry" />
        </mxCell>
        <mxCell id="OIHOBmY38c9OWcAXIg8z-7" value="принадлежит курсу" style="edgeLabel;html=1;align=center;verticalAlign=middle;resizable=0;points=[];" vertex="1" connectable="0" parent="OIHOBmY38c9OWcAXIg8z-6">
          <mxGeometry x="-0.1782" y="-1" relative="1" as="geometry">
            <mxPoint as="offset" />
          </mxGeometry>
        </mxCell>
        <mxCell id="OIHOBmY38c9OWcAXIg8z-8" value="Книги" style="rounded=0;whiteSpace=wrap;html=1;" vertex="1" parent="1">
          <mxGeometry x="500" y="400" width="120" height="60" as="geometry" />
        </mxCell>
        <mxCell id="OIHOBmY38c9OWcAXIg8z-9" value="Курсы" style="rounded=0;whiteSpace=wrap;html=1;" vertex="1" parent="1">
          <mxGeometry x="230" y="400" width="120" height="60" as="geometry" />
        </mxCell>
      </root>
    </mxGraphModel>
  </diagram>
  <diagram id="JXLsXJWMblRbcp0itvQz" name="Студенты">
    <mxGraphModel dx="1050" dy="530" grid="1" gridSize="10" guides="1" tooltips="1" connect="1" arrows="1" fold="1" page="1" pageScale="1" pageWidth="827" pageHeight="1169" math="0" shadow="0">
      <root>
        <mxCell id="0" />
        <mxCell id="1" parent="0" />
        <mxCell id="YmOKosvOybfiJofBErC5-1" value="&lt;font style=&quot;font-size: 15px;&quot;&gt;Студенты&lt;/font&gt;" style="text;html=1;align=center;verticalAlign=middle;resizable=0;points=[];autosize=1;strokeColor=none;fillColor=none;" vertex="1" parent="1">
          <mxGeometry x="369" y="90" width="90" height="30" as="geometry" />
        </mxCell>
        <mxCell id="YmOKosvOybfiJofBErC5-2" value="Иван" style="ellipse;whiteSpace=wrap;html=1;aspect=fixed;" vertex="1" parent="1">
          <mxGeometry x="244" y="152.5" width="60" height="60" as="geometry" />
        </mxCell>
        <mxCell id="YmOKosvOybfiJofBErC5-3" value="1" style="ellipse;whiteSpace=wrap;html=1;aspect=fixed;" vertex="1" parent="1">
          <mxGeometry x="264" y="152.5" width="20" height="20" as="geometry" />
        </mxCell>
        <mxCell id="YmOKosvOybfiJofBErC5-4" value="Анна" style="ellipse;whiteSpace=wrap;html=1;aspect=fixed;" vertex="1" parent="1">
          <mxGeometry x="314" y="152.5" width="60" height="60" as="geometry" />
        </mxCell>
        <mxCell id="YmOKosvOybfiJofBErC5-5" value="2" style="ellipse;whiteSpace=wrap;html=1;aspect=fixed;" vertex="1" parent="1">
          <mxGeometry x="334" y="152.5" width="20" height="20" as="geometry" />
        </mxCell>
        <mxCell id="YmOKosvOybfiJofBErC5-6" value="Сергей" style="ellipse;whiteSpace=wrap;html=1;aspect=fixed;" vertex="1" parent="1">
          <mxGeometry x="384" y="152.5" width="60" height="60" as="geometry" />
        </mxCell>
        <mxCell id="YmOKosvOybfiJofBErC5-7" value="3" style="ellipse;whiteSpace=wrap;html=1;aspect=fixed;" vertex="1" parent="1">
          <mxGeometry x="404" y="152.5" width="20" height="20" as="geometry" />
        </mxCell>
        <mxCell id="YmOKosvOybfiJofBErC5-8" value="Ольга" style="ellipse;whiteSpace=wrap;html=1;aspect=fixed;" vertex="1" parent="1">
          <mxGeometry x="454" y="152.5" width="60" height="60" as="geometry" />
        </mxCell>
        <mxCell id="YmOKosvOybfiJofBErC5-9" value="4" style="ellipse;whiteSpace=wrap;html=1;aspect=fixed;" vertex="1" parent="1">
          <mxGeometry x="474" y="152.5" width="20" height="20" as="geometry" />
        </mxCell>
        <mxCell id="YmOKosvOybfiJofBErC5-10" value="Дмитрий" style="ellipse;whiteSpace=wrap;html=1;aspect=fixed;" vertex="1" parent="1">
          <mxGeometry x="524" y="152.5" width="60" height="60" as="geometry" />
        </mxCell>
        <mxCell id="YmOKosvOybfiJofBErC5-11" value="5" style="ellipse;whiteSpace=wrap;html=1;aspect=fixed;" vertex="1" parent="1">
          <mxGeometry x="544" y="152.5" width="20" height="20" as="geometry" />
        </mxCell>
        <mxCell id="YmOKosvOybfiJofBErC5-12" value="Елена" style="ellipse;whiteSpace=wrap;html=1;aspect=fixed;" vertex="1" parent="1">
          <mxGeometry x="244" y="222.5" width="60" height="60" as="geometry" />
        </mxCell>
        <mxCell id="YmOKosvOybfiJofBErC5-13" value="6" style="ellipse;whiteSpace=wrap;html=1;aspect=fixed;" vertex="1" parent="1">
          <mxGeometry x="264" y="222.5" width="20" height="20" as="geometry" />
        </mxCell>
        <mxCell id="YmOKosvOybfiJofBErC5-14" value="Алексей" style="ellipse;whiteSpace=wrap;html=1;aspect=fixed;" vertex="1" parent="1">
          <mxGeometry x="314" y="222.5" width="60" height="60" as="geometry" />
        </mxCell>
        <mxCell id="YmOKosvOybfiJofBErC5-15" value="7" style="ellipse;whiteSpace=wrap;html=1;aspect=fixed;" vertex="1" parent="1">
          <mxGeometry x="334" y="222.5" width="20" height="20" as="geometry" />
        </mxCell>
        <mxCell id="YmOKosvOybfiJofBErC5-16" value="Мария" style="ellipse;whiteSpace=wrap;html=1;aspect=fixed;" vertex="1" parent="1">
          <mxGeometry x="384" y="222.5" width="60" height="60" as="geometry" />
        </mxCell>
        <mxCell id="YmOKosvOybfiJofBErC5-17" value="8" style="ellipse;whiteSpace=wrap;html=1;aspect=fixed;" vertex="1" parent="1">
          <mxGeometry x="404" y="222.5" width="20" height="20" as="geometry" />
        </mxCell>
        <mxCell id="YmOKosvOybfiJofBErC5-18" value="Николай" style="ellipse;whiteSpace=wrap;html=1;aspect=fixed;" vertex="1" parent="1">
          <mxGeometry x="454" y="222.5" width="60" height="60" as="geometry" />
        </mxCell>
        <mxCell id="YmOKosvOybfiJofBErC5-19" value="9" style="ellipse;whiteSpace=wrap;html=1;aspect=fixed;" vertex="1" parent="1">
          <mxGeometry x="474" y="222.5" width="20" height="20" as="geometry" />
        </mxCell>
        <mxCell id="YmOKosvOybfiJofBErC5-20" value="Татьяна" style="ellipse;whiteSpace=wrap;html=1;aspect=fixed;" vertex="1" parent="1">
          <mxGeometry x="524" y="222.5" width="60" height="60" as="geometry" />
        </mxCell>
        <mxCell id="YmOKosvOybfiJofBErC5-21" value="10" style="ellipse;whiteSpace=wrap;html=1;aspect=fixed;" vertex="1" parent="1">
          <mxGeometry x="544" y="222.5" width="20" height="20" as="geometry" />
        </mxCell>
      </root>
    </mxGraphModel>
  </diagram>
  <diagram id="Vuvk3BirwOIPWozhEJLC" name="Книги">
    <mxGraphModel dx="1050" dy="530" grid="1" gridSize="10" guides="1" tooltips="1" connect="1" arrows="1" fold="1" page="1" pageScale="1" pageWidth="827" pageHeight="1169" math="0" shadow="0">
      <root>
        <mxCell id="0" />
        <mxCell id="1" parent="0" />
        <mxCell id="f-gWVgFXAvHV4qHU8HsG-1" value="&lt;font style=&quot;font-size: 15px;&quot;&gt;Книги&lt;/font&gt;" style="text;html=1;align=center;verticalAlign=middle;resizable=0;points=[];autosize=1;strokeColor=none;fillColor=none;" vertex="1" parent="1">
          <mxGeometry x="379" y="290" width="60" height="30" as="geometry" />
        </mxCell>
        <mxCell id="f-gWVgFXAvHV4qHU8HsG-2" value="Война и мир" style="whiteSpace=wrap;html=1;" vertex="1" parent="1">
          <mxGeometry x="160" y="332.5" width="90" height="87.5" as="geometry" />
        </mxCell>
        <mxCell id="f-gWVgFXAvHV4qHU8HsG-3" value="1" style="whiteSpace=wrap;html=1;" vertex="1" parent="1">
          <mxGeometry x="185" y="332.5" width="40" height="17.5" as="geometry" />
        </mxCell>
        <mxCell id="f-gWVgFXAvHV4qHU8HsG-4" value="Гарри Поттер и философский камень" style="whiteSpace=wrap;html=1;" vertex="1" parent="1">
          <mxGeometry x="260" y="332.5" width="90" height="87.5" as="geometry" />
        </mxCell>
        <mxCell id="f-gWVgFXAvHV4qHU8HsG-5" value="2" style="whiteSpace=wrap;html=1;" vertex="1" parent="1">
          <mxGeometry x="285" y="332.5" width="40" height="20" as="geometry" />
        </mxCell>
        <mxCell id="f-gWVgFXAvHV4qHU8HsG-6" value="Код да Винчи" style="whiteSpace=wrap;html=1;" vertex="1" parent="1">
          <mxGeometry x="364" y="332.5" width="90" height="87.5" as="geometry" />
        </mxCell>
        <mxCell id="f-gWVgFXAvHV4qHU8HsG-7" value="3" style="whiteSpace=wrap;html=1;" vertex="1" parent="1">
          <mxGeometry x="389" y="332.5" width="40" height="20" as="geometry" />
        </mxCell>
        <mxCell id="f-gWVgFXAvHV4qHU8HsG-8" value="1984" style="whiteSpace=wrap;html=1;" vertex="1" parent="1">
          <mxGeometry x="470" y="332.5" width="90" height="87.5" as="geometry" />
        </mxCell>
        <mxCell id="f-gWVgFXAvHV4qHU8HsG-9" value="4" style="whiteSpace=wrap;html=1;" vertex="1" parent="1">
          <mxGeometry x="495" y="332.5" width="40" height="20" as="geometry" />
        </mxCell>
        <mxCell id="f-gWVgFXAvHV4qHU8HsG-10" value="Преступление и наказание" style="whiteSpace=wrap;html=1;" vertex="1" parent="1">
          <mxGeometry x="570" y="332.5" width="90" height="87.5" as="geometry" />
        </mxCell>
        <mxCell id="f-gWVgFXAvHV4qHU8HsG-11" value="5" style="whiteSpace=wrap;html=1;" vertex="1" parent="1">
          <mxGeometry x="595" y="332.5" width="40" height="20" as="geometry" />
        </mxCell>
        <mxCell id="f-gWVgFXAvHV4qHU8HsG-12" value="Мастер и Маргарита" style="whiteSpace=wrap;html=1;" vertex="1" parent="1">
          <mxGeometry x="160" y="440" width="90" height="90" as="geometry" />
        </mxCell>
        <mxCell id="f-gWVgFXAvHV4qHU8HsG-13" value="6" style="whiteSpace=wrap;html=1;" vertex="1" parent="1">
          <mxGeometry x="185" y="440" width="40" height="20" as="geometry" />
        </mxCell>
        <mxCell id="f-gWVgFXAvHV4qHU8HsG-14" value="Анна Каренина" style="whiteSpace=wrap;html=1;" vertex="1" parent="1">
          <mxGeometry x="260" y="440" width="90" height="90" as="geometry" />
        </mxCell>
        <mxCell id="f-gWVgFXAvHV4qHU8HsG-15" value="7" style="whiteSpace=wrap;html=1;" vertex="1" parent="1">
          <mxGeometry x="285" y="440" width="40" height="20" as="geometry" />
        </mxCell>
        <mxCell id="f-gWVgFXAvHV4qHU8HsG-16" value="Унесенные ветром" style="whiteSpace=wrap;html=1;" vertex="1" parent="1">
          <mxGeometry x="364" y="440" width="90" height="90" as="geometry" />
        </mxCell>
        <mxCell id="f-gWVgFXAvHV4qHU8HsG-17" value="8" style="whiteSpace=wrap;html=1;" vertex="1" parent="1">
          <mxGeometry x="389" y="440" width="40" height="20" as="geometry" />
        </mxCell>
        <mxCell id="f-gWVgFXAvHV4qHU8HsG-18" value="Алиса в стране чудес" style="whiteSpace=wrap;html=1;" vertex="1" parent="1">
          <mxGeometry x="470" y="438.5" width="90" height="90" as="geometry" />
        </mxCell>
        <mxCell id="f-gWVgFXAvHV4qHU8HsG-19" value="9" style="whiteSpace=wrap;html=1;" vertex="1" parent="1">
          <mxGeometry x="495" y="438.5" width="40" height="20" as="geometry" />
        </mxCell>
        <mxCell id="f-gWVgFXAvHV4qHU8HsG-20" value="Остров сокровищ" style="whiteSpace=wrap;html=1;" vertex="1" parent="1">
          <mxGeometry x="570" y="440" width="90" height="90" as="geometry" />
        </mxCell>
        <mxCell id="f-gWVgFXAvHV4qHU8HsG-21" value="10" style="whiteSpace=wrap;html=1;" vertex="1" parent="1">
          <mxGeometry x="595" y="440" width="40" height="20" as="geometry" />
        </mxCell>
      </root>
    </mxGraphModel>
  </diagram>
  <diagram id="5IInijfrkc7shL_6crbZ" name="Курсы">
    <mxGraphModel dx="1050" dy="530" grid="1" gridSize="10" guides="1" tooltips="1" connect="1" arrows="1" fold="1" page="1" pageScale="1" pageWidth="827" pageHeight="1169" math="0" shadow="0">
      <root>
        <mxCell id="0" />
        <mxCell id="1" parent="0" />
        <mxCell id="4zn3TPa9vY9t7LC1TVf9-1" value="Математический анализ" style="shape=hexagon;perimeter=hexagonPerimeter2;whiteSpace=wrap;html=1;fixedSize=1;" vertex="1" parent="1">
          <mxGeometry x="150" y="250" width="120" height="70" as="geometry" />
        </mxCell>
        <mxCell id="4zn3TPa9vY9t7LC1TVf9-2" value="1" style="shape=hexagon;perimeter=hexagonPerimeter2;whiteSpace=wrap;html=1;fixedSize=1;size=10;" vertex="1" parent="1">
          <mxGeometry x="190" y="250" width="40" height="20" as="geometry" />
        </mxCell>
        <mxCell id="4zn3TPa9vY9t7LC1TVf9-4" value="2" style="shape=hexagon;perimeter=hexagonPerimeter2;whiteSpace=wrap;html=1;fixedSize=1;size=10;" vertex="1" parent="1">
          <mxGeometry x="300" y="250" width="40" height="20" as="geometry" />
        </mxCell>
        <mxCell id="4zn3TPa9vY9t7LC1TVf9-42" value="1" style="shape=hexagon;perimeter=hexagonPerimeter2;whiteSpace=wrap;html=1;fixedSize=1;size=10;" vertex="1" parent="1">
          <mxGeometry x="190" y="250" width="40" height="20" as="geometry" />
        </mxCell>
        <mxCell id="4zn3TPa9vY9t7LC1TVf9-61" value="&lt;span style=&quot;font-size: 15px;&quot;&gt;Курсы&lt;/span&gt;" style="text;html=1;align=center;verticalAlign=middle;resizable=0;points=[];autosize=1;strokeColor=none;fillColor=none;" vertex="1" parent="1">
          <mxGeometry x="440" y="200" width="70" height="30" as="geometry" />
        </mxCell>
        <mxCell id="4zn3TPa9vY9t7LC1TVf9-82" value="Физика" style="shape=hexagon;perimeter=hexagonPerimeter2;whiteSpace=wrap;html=1;fixedSize=1;" vertex="1" parent="1">
          <mxGeometry x="280" y="250" width="120" height="70" as="geometry" />
        </mxCell>
        <mxCell id="4zn3TPa9vY9t7LC1TVf9-44" value="2" style="shape=hexagon;perimeter=hexagonPerimeter2;whiteSpace=wrap;html=1;fixedSize=1;size=10;" vertex="1" parent="1">
          <mxGeometry x="320" y="250" width="40" height="20" as="geometry" />
        </mxCell>
        <mxCell id="4zn3TPa9vY9t7LC1TVf9-85" value="Биология" style="shape=hexagon;perimeter=hexagonPerimeter2;whiteSpace=wrap;html=1;fixedSize=1;" vertex="1" parent="1">
          <mxGeometry x="550" y="250" width="120" height="70" as="geometry" />
        </mxCell>
        <mxCell id="4zn3TPa9vY9t7LC1TVf9-86" value="Общая химия" style="shape=hexagon;perimeter=hexagonPerimeter2;whiteSpace=wrap;html=1;fixedSize=1;" vertex="1" parent="1">
          <mxGeometry x="414" y="250" width="120" height="70" as="geometry" />
        </mxCell>
        <mxCell id="4zn3TPa9vY9t7LC1TVf9-87" value="История" style="shape=hexagon;perimeter=hexagonPerimeter2;whiteSpace=wrap;html=1;fixedSize=1;" vertex="1" parent="1">
          <mxGeometry x="680" y="250" width="120" height="70" as="geometry" />
        </mxCell>
        <mxCell id="4zn3TPa9vY9t7LC1TVf9-46" value="3" style="shape=hexagon;perimeter=hexagonPerimeter2;whiteSpace=wrap;html=1;fixedSize=1;size=10;" vertex="1" parent="1">
          <mxGeometry x="455" y="250" width="40" height="20" as="geometry" />
        </mxCell>
        <mxCell id="4zn3TPa9vY9t7LC1TVf9-48" value="4" style="shape=hexagon;perimeter=hexagonPerimeter2;whiteSpace=wrap;html=1;fixedSize=1;size=10;" vertex="1" parent="1">
          <mxGeometry x="590" y="250" width="40" height="20" as="geometry" />
        </mxCell>
        <mxCell id="4zn3TPa9vY9t7LC1TVf9-50" value="5" style="shape=hexagon;perimeter=hexagonPerimeter2;whiteSpace=wrap;html=1;fixedSize=1;size=10;" vertex="1" parent="1">
          <mxGeometry x="720" y="250" width="40" height="20" as="geometry" />
        </mxCell>
        <mxCell id="4zn3TPa9vY9t7LC1TVf9-88" style="edgeStyle=orthogonalEdgeStyle;rounded=0;orthogonalLoop=1;jettySize=auto;html=1;exitX=0.5;exitY=1;exitDx=0;exitDy=0;" edge="1" parent="1">
          <mxGeometry relative="1" as="geometry">
            <mxPoint x="430" y="390" as="sourcePoint" />
            <mxPoint x="430" y="390" as="targetPoint" />
          </mxGeometry>
        </mxCell>
        <mxCell id="4zn3TPa9vY9t7LC1TVf9-92" value="Информатика" style="shape=hexagon;perimeter=hexagonPerimeter2;whiteSpace=wrap;html=1;fixedSize=1;" vertex="1" parent="1">
          <mxGeometry x="150" y="335" width="120" height="70" as="geometry" />
        </mxCell>
        <mxCell id="4zn3TPa9vY9t7LC1TVf9-95" value="Экономика" style="shape=hexagon;perimeter=hexagonPerimeter2;whiteSpace=wrap;html=1;fixedSize=1;" vertex="1" parent="1">
          <mxGeometry x="680" y="335" width="120" height="70" as="geometry" />
        </mxCell>
        <mxCell id="4zn3TPa9vY9t7LC1TVf9-96" value="Психология" style="shape=hexagon;perimeter=hexagonPerimeter2;whiteSpace=wrap;html=1;fixedSize=1;" vertex="1" parent="1">
          <mxGeometry x="550" y="335" width="120" height="70" as="geometry" />
        </mxCell>
        <mxCell id="4zn3TPa9vY9t7LC1TVf9-97" value="Социология" style="shape=hexagon;perimeter=hexagonPerimeter2;whiteSpace=wrap;html=1;fixedSize=1;" vertex="1" parent="1">
          <mxGeometry x="414" y="335" width="120" height="70" as="geometry" />
        </mxCell>
        <mxCell id="4zn3TPa9vY9t7LC1TVf9-98" value="Философия" style="shape=hexagon;perimeter=hexagonPerimeter2;whiteSpace=wrap;html=1;fixedSize=1;" vertex="1" parent="1">
          <mxGeometry x="280" y="335" width="120" height="70" as="geometry" />
        </mxCell>
        <mxCell id="4zn3TPa9vY9t7LC1TVf9-12" value="6" style="shape=hexagon;perimeter=hexagonPerimeter2;whiteSpace=wrap;html=1;fixedSize=1;size=10;" vertex="1" parent="1">
          <mxGeometry x="190" y="335" width="40" height="20" as="geometry" />
        </mxCell>
        <mxCell id="4zn3TPa9vY9t7LC1TVf9-14" value="7" style="shape=hexagon;perimeter=hexagonPerimeter2;whiteSpace=wrap;html=1;fixedSize=1;size=10;" vertex="1" parent="1">
          <mxGeometry x="320" y="335" width="40" height="20" as="geometry" />
        </mxCell>
        <mxCell id="4zn3TPa9vY9t7LC1TVf9-56" value="8" style="shape=hexagon;perimeter=hexagonPerimeter2;whiteSpace=wrap;html=1;fixedSize=1;size=10;" vertex="1" parent="1">
          <mxGeometry x="454" y="335" width="40" height="20" as="geometry" />
        </mxCell>
        <mxCell id="4zn3TPa9vY9t7LC1TVf9-58" value="9" style="shape=hexagon;perimeter=hexagonPerimeter2;whiteSpace=wrap;html=1;fixedSize=1;size=10;" vertex="1" parent="1">
          <mxGeometry x="590" y="335" width="40" height="20" as="geometry" />
        </mxCell>
        <mxCell id="4zn3TPa9vY9t7LC1TVf9-60" value="10" style="shape=hexagon;perimeter=hexagonPerimeter2;whiteSpace=wrap;html=1;fixedSize=1;size=10;" vertex="1" parent="1">
          <mxGeometry x="720" y="335" width="40" height="20" as="geometry" />
        </mxCell>
      </root>
    </mxGraphModel>
  </diagram>
  <diagram id="6ccBdGv7XHzNydqJWU_-" name="Учится на">
    <mxGraphModel dx="955" dy="-687" grid="1" gridSize="10" guides="1" tooltips="1" connect="1" arrows="1" fold="1" page="1" pageScale="1" pageWidth="827" pageHeight="1169" math="0" shadow="0">
      <root>
        <mxCell id="0" />
        <mxCell id="1" parent="0" />
        <mxCell id="X55R2-JQ_pkxvXy0X74z-22" value="&lt;span style=&quot;font-size: 16px;&quot;&gt;Учится на&lt;/span&gt;" style="text;html=1;align=center;verticalAlign=middle;resizable=0;points=[];autosize=1;strokeColor=none;fillColor=none;" vertex="1" parent="1">
          <mxGeometry x="435" y="1380" width="100" height="30" as="geometry" />
        </mxCell>
        <mxCell id="X55R2-JQ_pkxvXy0X74z-23" style="edgeStyle=orthogonalEdgeStyle;rounded=0;orthogonalLoop=1;jettySize=auto;html=1;entryX=0.5;entryY=0;entryDx=0;entryDy=0;" edge="1" parent="1">
          <mxGeometry relative="1" as="geometry">
            <mxPoint x="260" y="1510" as="sourcePoint" />
            <mxPoint x="260" y="1530" as="targetPoint" />
          </mxGeometry>
        </mxCell>
        <mxCell id="X55R2-JQ_pkxvXy0X74z-26" style="edgeStyle=orthogonalEdgeStyle;rounded=0;orthogonalLoop=1;jettySize=auto;html=1;exitX=0.5;exitY=1;exitDx=0;exitDy=0;entryX=0.5;entryY=0;entryDx=0;entryDy=0;" edge="1" parent="1">
          <mxGeometry relative="1" as="geometry">
            <Array as="points">
              <mxPoint x="385" y="1520" />
              <mxPoint x="385" y="1520" />
            </Array>
            <mxPoint x="385" y="1510" as="sourcePoint" />
            <mxPoint x="385" y="1530" as="targetPoint" />
          </mxGeometry>
        </mxCell>
        <mxCell id="X55R2-JQ_pkxvXy0X74z-29" style="edgeStyle=orthogonalEdgeStyle;rounded=0;orthogonalLoop=1;jettySize=auto;html=1;exitX=0.5;exitY=1;exitDx=0;exitDy=0;entryX=0.5;entryY=0;entryDx=0;entryDy=0;" edge="1" parent="1">
          <mxGeometry relative="1" as="geometry">
            <mxPoint x="509" y="1510" as="sourcePoint" />
            <mxPoint x="511" y="1530" as="targetPoint" />
          </mxGeometry>
        </mxCell>
        <mxCell id="X55R2-JQ_pkxvXy0X74z-32" style="edgeStyle=orthogonalEdgeStyle;rounded=0;orthogonalLoop=1;jettySize=auto;html=1;exitX=0.5;exitY=1;exitDx=0;exitDy=0;entryX=0.5;entryY=0;entryDx=0;entryDy=0;" edge="1" parent="1">
          <mxGeometry relative="1" as="geometry">
            <Array as="points">
              <mxPoint x="638" y="1520" />
              <mxPoint x="638" y="1520" />
            </Array>
            <mxPoint x="638" y="1510" as="sourcePoint" />
            <mxPoint x="638" y="1530" as="targetPoint" />
          </mxGeometry>
        </mxCell>
        <mxCell id="X55R2-JQ_pkxvXy0X74z-35" style="edgeStyle=orthogonalEdgeStyle;rounded=0;orthogonalLoop=1;jettySize=auto;html=1;exitX=0.5;exitY=1;exitDx=0;exitDy=0;entryX=0.5;entryY=0;entryDx=0;entryDy=0;" edge="1" parent="1">
          <mxGeometry relative="1" as="geometry">
            <mxPoint x="764" y="1510" as="sourcePoint" />
            <mxPoint x="764" y="1530" as="targetPoint" />
          </mxGeometry>
        </mxCell>
        <mxCell id="X55R2-JQ_pkxvXy0X74z-44" style="edgeStyle=orthogonalEdgeStyle;rounded=0;orthogonalLoop=1;jettySize=auto;html=1;exitX=0.5;exitY=1;exitDx=0;exitDy=0;entryX=0.5;entryY=0;entryDx=0;entryDy=0;" edge="1" parent="1">
          <mxGeometry relative="1" as="geometry">
            <mxPoint x="260" y="1700" as="sourcePoint" />
            <mxPoint x="260" y="1730" as="targetPoint" />
          </mxGeometry>
        </mxCell>
        <mxCell id="X55R2-JQ_pkxvXy0X74z-47" style="edgeStyle=orthogonalEdgeStyle;rounded=0;orthogonalLoop=1;jettySize=auto;html=1;exitX=0.5;exitY=1;exitDx=0;exitDy=0;entryX=0.5;entryY=0;entryDx=0;entryDy=0;" edge="1" parent="1">
          <mxGeometry relative="1" as="geometry">
            <mxPoint x="385" y="1700" as="sourcePoint" />
            <mxPoint x="385" y="1730" as="targetPoint" />
          </mxGeometry>
        </mxCell>
        <mxCell id="X55R2-JQ_pkxvXy0X74z-50" style="edgeStyle=orthogonalEdgeStyle;rounded=0;orthogonalLoop=1;jettySize=auto;html=1;exitX=0.5;exitY=1;exitDx=0;exitDy=0;entryX=0.5;entryY=0;entryDx=0;entryDy=0;" edge="1" parent="1">
          <mxGeometry relative="1" as="geometry">
            <mxPoint x="511" y="1700" as="sourcePoint" />
            <mxPoint x="511" y="1730" as="targetPoint" />
          </mxGeometry>
        </mxCell>
        <mxCell id="X55R2-JQ_pkxvXy0X74z-53" style="edgeStyle=orthogonalEdgeStyle;rounded=0;orthogonalLoop=1;jettySize=auto;html=1;entryX=0.5;entryY=0;entryDx=0;entryDy=0;" edge="1" parent="1">
          <mxGeometry relative="1" as="geometry">
            <mxPoint x="637.9999999999998" y="1700" as="sourcePoint" />
            <mxPoint x="638" y="1730" as="targetPoint" />
          </mxGeometry>
        </mxCell>
        <mxCell id="X55R2-JQ_pkxvXy0X74z-56" style="edgeStyle=orthogonalEdgeStyle;rounded=0;orthogonalLoop=1;jettySize=auto;html=1;entryX=0.375;entryY=0;entryDx=0;entryDy=0;" edge="1" parent="1">
          <mxGeometry relative="1" as="geometry">
            <mxPoint x="763.9999999999998" y="1700" as="sourcePoint" />
            <mxPoint x="764" y="1730" as="targetPoint" />
          </mxGeometry>
        </mxCell>
        <mxCell id="g1zFKCaqjZ7Jf4abEzcY-3" value="Иван" style="ellipse;whiteSpace=wrap;html=1;aspect=fixed;" vertex="1" parent="1">
          <mxGeometry x="230" y="1450" width="60" height="60" as="geometry" />
        </mxCell>
        <mxCell id="g1zFKCaqjZ7Jf4abEzcY-4" value="1" style="ellipse;whiteSpace=wrap;html=1;aspect=fixed;" vertex="1" parent="1">
          <mxGeometry x="250" y="1450" width="20" height="20" as="geometry" />
        </mxCell>
        <mxCell id="Czs5Bt33obuhlR1Fiyer-1" value="Анна" style="ellipse;whiteSpace=wrap;html=1;aspect=fixed;" vertex="1" parent="1">
          <mxGeometry x="355" y="1450" width="60" height="60" as="geometry" />
        </mxCell>
        <mxCell id="Czs5Bt33obuhlR1Fiyer-2" value="2" style="ellipse;whiteSpace=wrap;html=1;aspect=fixed;" vertex="1" parent="1">
          <mxGeometry x="375" y="1450" width="20" height="20" as="geometry" />
        </mxCell>
        <mxCell id="Czs5Bt33obuhlR1Fiyer-3" value="Сергей" style="ellipse;whiteSpace=wrap;html=1;aspect=fixed;" vertex="1" parent="1">
          <mxGeometry x="481" y="1450" width="60" height="60" as="geometry" />
        </mxCell>
        <mxCell id="Czs5Bt33obuhlR1Fiyer-4" value="3" style="ellipse;whiteSpace=wrap;html=1;aspect=fixed;" vertex="1" parent="1">
          <mxGeometry x="501" y="1450" width="20" height="20" as="geometry" />
        </mxCell>
        <mxCell id="Czs5Bt33obuhlR1Fiyer-5" value="Ольга" style="ellipse;whiteSpace=wrap;html=1;aspect=fixed;" vertex="1" parent="1">
          <mxGeometry x="608" y="1450" width="60" height="60" as="geometry" />
        </mxCell>
        <mxCell id="Czs5Bt33obuhlR1Fiyer-6" value="4" style="ellipse;whiteSpace=wrap;html=1;aspect=fixed;" vertex="1" parent="1">
          <mxGeometry x="628" y="1450" width="20" height="20" as="geometry" />
        </mxCell>
        <mxCell id="Czs5Bt33obuhlR1Fiyer-7" value="Дмитрий" style="ellipse;whiteSpace=wrap;html=1;aspect=fixed;" vertex="1" parent="1">
          <mxGeometry x="734" y="1450" width="60" height="60" as="geometry" />
        </mxCell>
        <mxCell id="Czs5Bt33obuhlR1Fiyer-8" value="5" style="ellipse;whiteSpace=wrap;html=1;aspect=fixed;" vertex="1" parent="1">
          <mxGeometry x="754" y="1450" width="20" height="20" as="geometry" />
        </mxCell>
        <mxCell id="-g2uNyUNqlAnFUX5OyOc-1" value="Елена" style="ellipse;whiteSpace=wrap;html=1;aspect=fixed;" vertex="1" parent="1">
          <mxGeometry x="230" y="1640" width="60" height="60" as="geometry" />
        </mxCell>
        <mxCell id="-g2uNyUNqlAnFUX5OyOc-2" value="6" style="ellipse;whiteSpace=wrap;html=1;aspect=fixed;" vertex="1" parent="1">
          <mxGeometry x="250" y="1640" width="20" height="20" as="geometry" />
        </mxCell>
        <mxCell id="-g2uNyUNqlAnFUX5OyOc-3" value="Алексей" style="ellipse;whiteSpace=wrap;html=1;aspect=fixed;" vertex="1" parent="1">
          <mxGeometry x="355" y="1640" width="60" height="60" as="geometry" />
        </mxCell>
        <mxCell id="-g2uNyUNqlAnFUX5OyOc-4" value="7" style="ellipse;whiteSpace=wrap;html=1;aspect=fixed;" vertex="1" parent="1">
          <mxGeometry x="375" y="1640" width="20" height="20" as="geometry" />
        </mxCell>
        <mxCell id="-g2uNyUNqlAnFUX5OyOc-5" value="Мария" style="ellipse;whiteSpace=wrap;html=1;aspect=fixed;" vertex="1" parent="1">
          <mxGeometry x="481" y="1640" width="60" height="60" as="geometry" />
        </mxCell>
        <mxCell id="-g2uNyUNqlAnFUX5OyOc-6" value="8" style="ellipse;whiteSpace=wrap;html=1;aspect=fixed;" vertex="1" parent="1">
          <mxGeometry x="501" y="1640" width="20" height="20" as="geometry" />
        </mxCell>
        <mxCell id="-g2uNyUNqlAnFUX5OyOc-7" value="Николай" style="ellipse;whiteSpace=wrap;html=1;aspect=fixed;" vertex="1" parent="1">
          <mxGeometry x="608" y="1640" width="60" height="60" as="geometry" />
        </mxCell>
        <mxCell id="-g2uNyUNqlAnFUX5OyOc-8" value="9" style="ellipse;whiteSpace=wrap;html=1;aspect=fixed;" vertex="1" parent="1">
          <mxGeometry x="628" y="1640" width="20" height="20" as="geometry" />
        </mxCell>
        <mxCell id="-g2uNyUNqlAnFUX5OyOc-9" value="Татьяна" style="ellipse;whiteSpace=wrap;html=1;aspect=fixed;" vertex="1" parent="1">
          <mxGeometry x="734" y="1640" width="60" height="60" as="geometry" />
        </mxCell>
        <mxCell id="-g2uNyUNqlAnFUX5OyOc-10" value="10" style="ellipse;whiteSpace=wrap;html=1;aspect=fixed;" vertex="1" parent="1">
          <mxGeometry x="754" y="1640" width="20" height="20" as="geometry" />
        </mxCell>
        <mxCell id="qXM8TqEPy7J9CneZKfsm-1" value="Математический анализ" style="shape=hexagon;perimeter=hexagonPerimeter2;whiteSpace=wrap;html=1;fixedSize=1;" vertex="1" parent="1">
          <mxGeometry x="198" y="1530" width="120" height="70" as="geometry" />
        </mxCell>
        <mxCell id="qXM8TqEPy7J9CneZKfsm-2" value="1" style="shape=hexagon;perimeter=hexagonPerimeter2;whiteSpace=wrap;html=1;fixedSize=1;size=10;" vertex="1" parent="1">
          <mxGeometry x="238" y="1530" width="40" height="20" as="geometry" />
        </mxCell>
        <mxCell id="qXM8TqEPy7J9CneZKfsm-3" value="2" style="shape=hexagon;perimeter=hexagonPerimeter2;whiteSpace=wrap;html=1;fixedSize=1;size=10;" vertex="1" parent="1">
          <mxGeometry x="345" y="1530" width="40" height="20" as="geometry" />
        </mxCell>
        <mxCell id="qXM8TqEPy7J9CneZKfsm-4" value="1" style="shape=hexagon;perimeter=hexagonPerimeter2;whiteSpace=wrap;html=1;fixedSize=1;size=10;" vertex="1" parent="1">
          <mxGeometry x="238" y="1530" width="40" height="20" as="geometry" />
        </mxCell>
        <mxCell id="qXM8TqEPy7J9CneZKfsm-5" value="Физика" style="shape=hexagon;perimeter=hexagonPerimeter2;whiteSpace=wrap;html=1;fixedSize=1;" vertex="1" parent="1">
          <mxGeometry x="325" y="1530" width="120" height="70" as="geometry" />
        </mxCell>
        <mxCell id="qXM8TqEPy7J9CneZKfsm-6" value="2" style="shape=hexagon;perimeter=hexagonPerimeter2;whiteSpace=wrap;html=1;fixedSize=1;size=10;" vertex="1" parent="1">
          <mxGeometry x="365" y="1530" width="40" height="20" as="geometry" />
        </mxCell>
        <mxCell id="qXM8TqEPy7J9CneZKfsm-7" value="Биология" style="shape=hexagon;perimeter=hexagonPerimeter2;whiteSpace=wrap;html=1;fixedSize=1;" vertex="1" parent="1">
          <mxGeometry x="578" y="1530" width="120" height="70" as="geometry" />
        </mxCell>
        <mxCell id="qXM8TqEPy7J9CneZKfsm-8" value="Общая химия" style="shape=hexagon;perimeter=hexagonPerimeter2;whiteSpace=wrap;html=1;fixedSize=1;" vertex="1" parent="1">
          <mxGeometry x="450" y="1530" width="120" height="70" as="geometry" />
        </mxCell>
        <mxCell id="qXM8TqEPy7J9CneZKfsm-9" value="История" style="shape=hexagon;perimeter=hexagonPerimeter2;whiteSpace=wrap;html=1;fixedSize=1;" vertex="1" parent="1">
          <mxGeometry x="704" y="1530" width="120" height="70" as="geometry" />
        </mxCell>
        <mxCell id="qXM8TqEPy7J9CneZKfsm-10" value="3" style="shape=hexagon;perimeter=hexagonPerimeter2;whiteSpace=wrap;html=1;fixedSize=1;size=10;" vertex="1" parent="1">
          <mxGeometry x="491" y="1530" width="40" height="20" as="geometry" />
        </mxCell>
        <mxCell id="qXM8TqEPy7J9CneZKfsm-11" value="4" style="shape=hexagon;perimeter=hexagonPerimeter2;whiteSpace=wrap;html=1;fixedSize=1;size=10;" vertex="1" parent="1">
          <mxGeometry x="618" y="1530" width="40" height="20" as="geometry" />
        </mxCell>
        <mxCell id="qXM8TqEPy7J9CneZKfsm-12" value="5" style="shape=hexagon;perimeter=hexagonPerimeter2;whiteSpace=wrap;html=1;fixedSize=1;size=10;" vertex="1" parent="1">
          <mxGeometry x="744" y="1530" width="40" height="20" as="geometry" />
        </mxCell>
        <mxCell id="qXM8TqEPy7J9CneZKfsm-13" style="edgeStyle=orthogonalEdgeStyle;rounded=0;orthogonalLoop=1;jettySize=auto;html=1;exitX=0.5;exitY=1;exitDx=0;exitDy=0;" edge="1" parent="1">
          <mxGeometry relative="1" as="geometry">
            <mxPoint x="467" y="1785" as="sourcePoint" />
            <mxPoint x="467" y="1785" as="targetPoint" />
          </mxGeometry>
        </mxCell>
        <mxCell id="qXM8TqEPy7J9CneZKfsm-14" value="Информатика" style="shape=hexagon;perimeter=hexagonPerimeter2;whiteSpace=wrap;html=1;fixedSize=1;" vertex="1" parent="1">
          <mxGeometry x="198" y="1730" width="120" height="70" as="geometry" />
        </mxCell>
        <mxCell id="qXM8TqEPy7J9CneZKfsm-15" value="Экономика" style="shape=hexagon;perimeter=hexagonPerimeter2;whiteSpace=wrap;html=1;fixedSize=1;" vertex="1" parent="1">
          <mxGeometry x="704" y="1730" width="120" height="70" as="geometry" />
        </mxCell>
        <mxCell id="qXM8TqEPy7J9CneZKfsm-16" value="Психология" style="shape=hexagon;perimeter=hexagonPerimeter2;whiteSpace=wrap;html=1;fixedSize=1;" vertex="1" parent="1">
          <mxGeometry x="578" y="1730" width="120" height="70" as="geometry" />
        </mxCell>
        <mxCell id="qXM8TqEPy7J9CneZKfsm-17" value="Социология" style="shape=hexagon;perimeter=hexagonPerimeter2;whiteSpace=wrap;html=1;fixedSize=1;" vertex="1" parent="1">
          <mxGeometry x="451" y="1730" width="120" height="70" as="geometry" />
        </mxCell>
        <mxCell id="qXM8TqEPy7J9CneZKfsm-18" value="Философия" style="shape=hexagon;perimeter=hexagonPerimeter2;whiteSpace=wrap;html=1;fixedSize=1;" vertex="1" parent="1">
          <mxGeometry x="325" y="1730" width="120" height="70" as="geometry" />
        </mxCell>
        <mxCell id="qXM8TqEPy7J9CneZKfsm-19" value="6" style="shape=hexagon;perimeter=hexagonPerimeter2;whiteSpace=wrap;html=1;fixedSize=1;size=10;" vertex="1" parent="1">
          <mxGeometry x="238" y="1730" width="40" height="20" as="geometry" />
        </mxCell>
        <mxCell id="qXM8TqEPy7J9CneZKfsm-20" value="7" style="shape=hexagon;perimeter=hexagonPerimeter2;whiteSpace=wrap;html=1;fixedSize=1;size=10;" vertex="1" parent="1">
          <mxGeometry x="365" y="1730" width="40" height="20" as="geometry" />
        </mxCell>
        <mxCell id="qXM8TqEPy7J9CneZKfsm-21" value="8" style="shape=hexagon;perimeter=hexagonPerimeter2;whiteSpace=wrap;html=1;fixedSize=1;size=10;" vertex="1" parent="1">
          <mxGeometry x="491" y="1730" width="40" height="20" as="geometry" />
        </mxCell>
        <mxCell id="qXM8TqEPy7J9CneZKfsm-22" value="9" style="shape=hexagon;perimeter=hexagonPerimeter2;whiteSpace=wrap;html=1;fixedSize=1;size=10;" vertex="1" parent="1">
          <mxGeometry x="618" y="1730" width="40" height="20" as="geometry" />
        </mxCell>
        <mxCell id="qXM8TqEPy7J9CneZKfsm-23" value="10" style="shape=hexagon;perimeter=hexagonPerimeter2;whiteSpace=wrap;html=1;fixedSize=1;size=10;" vertex="1" parent="1">
          <mxGeometry x="744" y="1730" width="40" height="20" as="geometry" />
        </mxCell>
      </root>
    </mxGraphModel>
  </diagram>
  <diagram id="A1u75ksUblFa6kfvPz_5" name="Читает">
    <mxGraphModel dx="1050" dy="530" grid="1" gridSize="10" guides="1" tooltips="1" connect="1" arrows="1" fold="1" page="1" pageScale="1" pageWidth="827" pageHeight="1169" math="0" shadow="0">
      <root>
        <mxCell id="0" />
        <mxCell id="1" parent="0" />
        <mxCell id="c1kks6vO4NEv8yXn91x8-1" value="&lt;font style=&quot;font-size: 16px;&quot;&gt;Читает&lt;/font&gt;" style="text;html=1;align=center;verticalAlign=middle;resizable=0;points=[];autosize=1;strokeColor=none;fillColor=none;" vertex="1" parent="1">
          <mxGeometry x="291" y="557.5" width="70" height="30" as="geometry" />
        </mxCell>
        <mxCell id="c1kks6vO4NEv8yXn91x8-22" style="edgeStyle=orthogonalEdgeStyle;rounded=0;orthogonalLoop=1;jettySize=auto;html=1;exitX=0.5;exitY=1;exitDx=0;exitDy=0;entryX=0.5;entryY=0;entryDx=0;entryDy=0;" edge="1" parent="1">
          <mxGeometry relative="1" as="geometry">
            <mxPoint x="205" y="370" as="sourcePoint" />
            <mxPoint x="205" y="407.5" as="targetPoint" />
          </mxGeometry>
        </mxCell>
        <mxCell id="c1kks6vO4NEv8yXn91x8-28" style="edgeStyle=orthogonalEdgeStyle;rounded=0;orthogonalLoop=1;jettySize=auto;html=1;exitX=0.5;exitY=1;exitDx=0;exitDy=0;entryX=0.5;entryY=0;entryDx=0;entryDy=0;" edge="1" parent="1">
          <mxGeometry relative="1" as="geometry">
            <mxPoint x="460" y="370" as="sourcePoint" />
            <mxPoint x="460" y="407.5" as="targetPoint" />
          </mxGeometry>
        </mxCell>
        <mxCell id="c1kks6vO4NEv8yXn91x8-34" style="edgeStyle=orthogonalEdgeStyle;rounded=0;orthogonalLoop=1;jettySize=auto;html=1;exitX=0.5;exitY=1;exitDx=0;exitDy=0;entryX=0.5;entryY=0;entryDx=0;entryDy=0;" edge="1" parent="1">
          <mxGeometry relative="1" as="geometry">
            <mxPoint x="665" y="370" as="sourcePoint" />
            <mxPoint x="665" y="407.5" as="targetPoint" />
          </mxGeometry>
        </mxCell>
        <mxCell id="c1kks6vO4NEv8yXn91x8-37" style="edgeStyle=orthogonalEdgeStyle;rounded=0;orthogonalLoop=1;jettySize=auto;html=1;entryX=0.5;entryY=0;entryDx=0;entryDy=0;" edge="1" parent="1">
          <mxGeometry relative="1" as="geometry">
            <mxPoint x="225" y="590" as="sourcePoint" />
            <mxPoint x="225" y="615" as="targetPoint" />
          </mxGeometry>
        </mxCell>
        <mxCell id="c1kks6vO4NEv8yXn91x8-40" style="edgeStyle=orthogonalEdgeStyle;rounded=0;orthogonalLoop=1;jettySize=auto;html=1;entryX=0.5;entryY=0;entryDx=0;entryDy=0;" edge="1" parent="1">
          <mxGeometry relative="1" as="geometry">
            <mxPoint x="330" y="590" as="sourcePoint" />
            <mxPoint x="330" y="615" as="targetPoint" />
          </mxGeometry>
        </mxCell>
        <mxCell id="c1kks6vO4NEv8yXn91x8-43" style="edgeStyle=orthogonalEdgeStyle;rounded=0;orthogonalLoop=1;jettySize=auto;html=1;entryX=0.5;entryY=0;entryDx=0;entryDy=0;" edge="1" parent="1">
          <mxGeometry relative="1" as="geometry">
            <mxPoint x="434" y="590" as="sourcePoint" />
            <mxPoint x="434" y="615" as="targetPoint" />
          </mxGeometry>
        </mxCell>
        <mxCell id="c1kks6vO4NEv8yXn91x8-46" style="edgeStyle=orthogonalEdgeStyle;rounded=0;orthogonalLoop=1;jettySize=auto;html=1;entryX=0.5;entryY=0;entryDx=0;entryDy=0;" edge="1" parent="1">
          <mxGeometry relative="1" as="geometry">
            <mxPoint x="540" y="590" as="sourcePoint" />
            <mxPoint x="540" y="615" as="targetPoint" />
          </mxGeometry>
        </mxCell>
        <mxCell id="c1kks6vO4NEv8yXn91x8-52" style="edgeStyle=orthogonalEdgeStyle;rounded=0;orthogonalLoop=1;jettySize=auto;html=1;entryX=0.5;entryY=0;entryDx=0;entryDy=0;" edge="1" parent="1">
          <mxGeometry relative="1" as="geometry">
            <mxPoint x="356" y="370" as="sourcePoint" />
            <mxPoint x="356" y="407.5" as="targetPoint" />
          </mxGeometry>
        </mxCell>
        <mxCell id="bzsTsbjOGnl8ave9AQN_-1" value="Иван" style="ellipse;whiteSpace=wrap;html=1;aspect=fixed;" vertex="1" parent="1">
          <mxGeometry x="175" y="310" width="60" height="60" as="geometry" />
        </mxCell>
        <mxCell id="bzsTsbjOGnl8ave9AQN_-2" value="1" style="ellipse;whiteSpace=wrap;html=1;aspect=fixed;" vertex="1" parent="1">
          <mxGeometry x="195" y="310" width="20" height="20" as="geometry" />
        </mxCell>
        <mxCell id="bzsTsbjOGnl8ave9AQN_-3" value="Анна" style="ellipse;whiteSpace=wrap;html=1;aspect=fixed;" vertex="1" parent="1">
          <mxGeometry x="430" y="310" width="60" height="60" as="geometry" />
        </mxCell>
        <mxCell id="bzsTsbjOGnl8ave9AQN_-4" value="2" style="ellipse;whiteSpace=wrap;html=1;aspect=fixed;" vertex="1" parent="1">
          <mxGeometry x="450" y="310" width="20" height="20" as="geometry" />
        </mxCell>
        <mxCell id="bzsTsbjOGnl8ave9AQN_-5" value="Сергей" style="ellipse;whiteSpace=wrap;html=1;aspect=fixed;" vertex="1" parent="1">
          <mxGeometry x="325" y="310" width="60" height="60" as="geometry" />
        </mxCell>
        <mxCell id="bzsTsbjOGnl8ave9AQN_-6" value="3" style="ellipse;whiteSpace=wrap;html=1;aspect=fixed;" vertex="1" parent="1">
          <mxGeometry x="345" y="310" width="20" height="20" as="geometry" />
        </mxCell>
        <mxCell id="bzsTsbjOGnl8ave9AQN_-21" style="edgeStyle=orthogonalEdgeStyle;rounded=0;orthogonalLoop=1;jettySize=auto;html=1;exitX=0.5;exitY=1;exitDx=0;exitDy=0;entryX=0.5;entryY=0;entryDx=0;entryDy=0;" edge="1" parent="1" source="bzsTsbjOGnl8ave9AQN_-7">
          <mxGeometry relative="1" as="geometry">
            <mxPoint x="205" y="407.5" as="targetPoint" />
            <Array as="points">
              <mxPoint x="280" y="388" />
              <mxPoint x="205" y="388" />
            </Array>
          </mxGeometry>
        </mxCell>
        <mxCell id="bzsTsbjOGnl8ave9AQN_-7" value="Ольга" style="ellipse;whiteSpace=wrap;html=1;aspect=fixed;" vertex="1" parent="1">
          <mxGeometry x="250" y="310" width="60" height="60" as="geometry" />
        </mxCell>
        <mxCell id="bzsTsbjOGnl8ave9AQN_-8" value="4" style="ellipse;whiteSpace=wrap;html=1;aspect=fixed;" vertex="1" parent="1">
          <mxGeometry x="270" y="310" width="20" height="20" as="geometry" />
        </mxCell>
        <mxCell id="bzsTsbjOGnl8ave9AQN_-22" style="edgeStyle=orthogonalEdgeStyle;rounded=0;orthogonalLoop=1;jettySize=auto;html=1;exitX=0.5;exitY=1;exitDx=0;exitDy=0;entryX=0.5;entryY=0;entryDx=0;entryDy=0;" edge="1" parent="1" source="bzsTsbjOGnl8ave9AQN_-9">
          <mxGeometry relative="1" as="geometry">
            <mxPoint x="205" y="407.5" as="targetPoint" />
            <Array as="points">
              <mxPoint x="130" y="388" />
              <mxPoint x="205" y="388" />
            </Array>
          </mxGeometry>
        </mxCell>
        <mxCell id="bzsTsbjOGnl8ave9AQN_-9" value="Дмитрий" style="ellipse;whiteSpace=wrap;html=1;aspect=fixed;" vertex="1" parent="1">
          <mxGeometry x="100" y="310" width="60" height="60" as="geometry" />
        </mxCell>
        <mxCell id="bzsTsbjOGnl8ave9AQN_-10" value="5" style="ellipse;whiteSpace=wrap;html=1;aspect=fixed;" vertex="1" parent="1">
          <mxGeometry x="120" y="310" width="20" height="20" as="geometry" />
        </mxCell>
        <mxCell id="bzsTsbjOGnl8ave9AQN_-11" value="Елена" style="ellipse;whiteSpace=wrap;html=1;aspect=fixed;" vertex="1" parent="1">
          <mxGeometry x="635" y="310" width="60" height="60" as="geometry" />
        </mxCell>
        <mxCell id="bzsTsbjOGnl8ave9AQN_-12" value="6" style="ellipse;whiteSpace=wrap;html=1;aspect=fixed;" vertex="1" parent="1">
          <mxGeometry x="655" y="310" width="20" height="20" as="geometry" />
        </mxCell>
        <mxCell id="bzsTsbjOGnl8ave9AQN_-13" value="Алексей" style="ellipse;whiteSpace=wrap;html=1;aspect=fixed;" vertex="1" parent="1">
          <mxGeometry x="195" y="530" width="60" height="60" as="geometry" />
        </mxCell>
        <mxCell id="bzsTsbjOGnl8ave9AQN_-14" value="7" style="ellipse;whiteSpace=wrap;html=1;aspect=fixed;" vertex="1" parent="1">
          <mxGeometry x="215" y="530" width="20" height="20" as="geometry" />
        </mxCell>
        <mxCell id="bzsTsbjOGnl8ave9AQN_-15" value="Мария" style="ellipse;whiteSpace=wrap;html=1;aspect=fixed;" vertex="1" parent="1">
          <mxGeometry x="301" y="530" width="60" height="60" as="geometry" />
        </mxCell>
        <mxCell id="bzsTsbjOGnl8ave9AQN_-16" value="8" style="ellipse;whiteSpace=wrap;html=1;aspect=fixed;" vertex="1" parent="1">
          <mxGeometry x="321" y="530" width="20" height="20" as="geometry" />
        </mxCell>
        <mxCell id="bzsTsbjOGnl8ave9AQN_-17" value="Николай" style="ellipse;whiteSpace=wrap;html=1;aspect=fixed;" vertex="1" parent="1">
          <mxGeometry x="404" y="530" width="60" height="60" as="geometry" />
        </mxCell>
        <mxCell id="bzsTsbjOGnl8ave9AQN_-18" value="9" style="ellipse;whiteSpace=wrap;html=1;aspect=fixed;" vertex="1" parent="1">
          <mxGeometry x="424" y="530" width="20" height="20" as="geometry" />
        </mxCell>
        <mxCell id="bzsTsbjOGnl8ave9AQN_-19" value="Татьяна" style="ellipse;whiteSpace=wrap;html=1;aspect=fixed;" vertex="1" parent="1">
          <mxGeometry x="510" y="530" width="60" height="60" as="geometry" />
        </mxCell>
        <mxCell id="bzsTsbjOGnl8ave9AQN_-20" value="10" style="ellipse;whiteSpace=wrap;html=1;aspect=fixed;" vertex="1" parent="1">
          <mxGeometry x="530" y="530" width="20" height="20" as="geometry" />
        </mxCell>
        <mxCell id="bzsTsbjOGnl8ave9AQN_-24" value="&lt;font style=&quot;font-size: 16px;&quot;&gt;Читает&lt;/font&gt;" style="text;html=1;align=center;verticalAlign=middle;resizable=0;points=[];autosize=1;strokeColor=none;fillColor=none;" vertex="1" parent="1">
          <mxGeometry x="374" y="250" width="70" height="30" as="geometry" />
        </mxCell>
        <mxCell id="VU4JHIbJ86m6x1q98EAd-1" value="Война и мир" style="whiteSpace=wrap;html=1;" vertex="1" parent="1">
          <mxGeometry x="160" y="407.5" width="90" height="87.5" as="geometry" />
        </mxCell>
        <mxCell id="VU4JHIbJ86m6x1q98EAd-2" value="1" style="whiteSpace=wrap;html=1;" vertex="1" parent="1">
          <mxGeometry x="185" y="407.5" width="40" height="17.5" as="geometry" />
        </mxCell>
        <mxCell id="VU4JHIbJ86m6x1q98EAd-3" value="Гарри Поттер и философский камень" style="whiteSpace=wrap;html=1;" vertex="1" parent="1">
          <mxGeometry x="310" y="407.5" width="90" height="87.5" as="geometry" />
        </mxCell>
        <mxCell id="VU4JHIbJ86m6x1q98EAd-4" value="2" style="whiteSpace=wrap;html=1;" vertex="1" parent="1">
          <mxGeometry x="335" y="407.5" width="40" height="20" as="geometry" />
        </mxCell>
        <mxCell id="VU4JHIbJ86m6x1q98EAd-5" value="Код да Винчи" style="whiteSpace=wrap;html=1;" vertex="1" parent="1">
          <mxGeometry x="414" y="407.5" width="90" height="87.5" as="geometry" />
        </mxCell>
        <mxCell id="VU4JHIbJ86m6x1q98EAd-6" value="3" style="whiteSpace=wrap;html=1;" vertex="1" parent="1">
          <mxGeometry x="439" y="407.5" width="40" height="20" as="geometry" />
        </mxCell>
        <mxCell id="VU4JHIbJ86m6x1q98EAd-7" value="1984" style="whiteSpace=wrap;html=1;" vertex="1" parent="1">
          <mxGeometry x="520" y="407.5" width="90" height="87.5" as="geometry" />
        </mxCell>
        <mxCell id="VU4JHIbJ86m6x1q98EAd-8" value="4" style="whiteSpace=wrap;html=1;" vertex="1" parent="1">
          <mxGeometry x="545" y="407.5" width="40" height="20" as="geometry" />
        </mxCell>
        <mxCell id="VU4JHIbJ86m6x1q98EAd-9" value="Преступление и наказание" style="whiteSpace=wrap;html=1;" vertex="1" parent="1">
          <mxGeometry x="620" y="407.5" width="90" height="87.5" as="geometry" />
        </mxCell>
        <mxCell id="VU4JHIbJ86m6x1q98EAd-10" value="5" style="whiteSpace=wrap;html=1;" vertex="1" parent="1">
          <mxGeometry x="645" y="407.5" width="40" height="20" as="geometry" />
        </mxCell>
        <mxCell id="VU4JHIbJ86m6x1q98EAd-11" value="Мастер и Маргарита" style="whiteSpace=wrap;html=1;" vertex="1" parent="1">
          <mxGeometry x="180" y="615" width="90" height="95" as="geometry" />
        </mxCell>
        <mxCell id="VU4JHIbJ86m6x1q98EAd-12" value="6" style="whiteSpace=wrap;html=1;" vertex="1" parent="1">
          <mxGeometry x="205" y="615" width="40" height="20" as="geometry" />
        </mxCell>
        <mxCell id="VU4JHIbJ86m6x1q98EAd-13" value="Анна Каренина" style="whiteSpace=wrap;html=1;" vertex="1" parent="1">
          <mxGeometry x="285" y="615" width="90" height="95" as="geometry" />
        </mxCell>
        <mxCell id="VU4JHIbJ86m6x1q98EAd-14" value="7" style="whiteSpace=wrap;html=1;" vertex="1" parent="1">
          <mxGeometry x="310" y="615" width="40" height="20" as="geometry" />
        </mxCell>
        <mxCell id="VU4JHIbJ86m6x1q98EAd-15" value="Унесенные ветром" style="whiteSpace=wrap;html=1;" vertex="1" parent="1">
          <mxGeometry x="389" y="614" width="90" height="96" as="geometry" />
        </mxCell>
        <mxCell id="VU4JHIbJ86m6x1q98EAd-16" value="8" style="whiteSpace=wrap;html=1;" vertex="1" parent="1">
          <mxGeometry x="414" y="614" width="40" height="20" as="geometry" />
        </mxCell>
        <mxCell id="VU4JHIbJ86m6x1q98EAd-17" value="Алиса в стране чудес" style="whiteSpace=wrap;html=1;" vertex="1" parent="1">
          <mxGeometry x="495" y="615" width="90" height="96" as="geometry" />
        </mxCell>
        <mxCell id="VU4JHIbJ86m6x1q98EAd-18" value="9" style="whiteSpace=wrap;html=1;" vertex="1" parent="1">
          <mxGeometry x="520" y="615" width="40" height="20" as="geometry" />
        </mxCell>
        <mxCell id="VU4JHIbJ86m6x1q98EAd-19" value="Остров сокровищ" style="whiteSpace=wrap;html=1;" vertex="1" parent="1">
          <mxGeometry x="605" y="614" width="90" height="96" as="geometry" />
        </mxCell>
        <mxCell id="VU4JHIbJ86m6x1q98EAd-20" value="10" style="whiteSpace=wrap;html=1;" vertex="1" parent="1">
          <mxGeometry x="630" y="614" width="40" height="20" as="geometry" />
        </mxCell>
      </root>
    </mxGraphModel>
  </diagram>
  <diagram id="VV5fbvQpJkcll7WGJGrw" name="Принадлежит курсу">
    <mxGraphModel dx="223" dy="530" grid="1" gridSize="10" guides="1" tooltips="1" connect="1" arrows="1" fold="1" page="1" pageScale="1" pageWidth="827" pageHeight="1169" math="0" shadow="0">
      <root>
        <mxCell id="0" />
        <mxCell id="1" parent="0" />
        <mxCell id="Bh8WEE73MFyyvflTOuOD-25" style="edgeStyle=orthogonalEdgeStyle;rounded=0;orthogonalLoop=1;jettySize=auto;html=1;exitX=0.5;exitY=0;exitDx=0;exitDy=0;entryX=0.5;entryY=1;entryDx=0;entryDy=0;" edge="1" parent="1" target="Q2dRCypDQ9gvHWXwV8JC-9">
          <mxGeometry relative="1" as="geometry">
            <mxPoint x="1105.5" y="1241" as="sourcePoint" />
            <mxPoint x="1105.5" y="1211" as="targetPoint" />
          </mxGeometry>
        </mxCell>
        <mxCell id="Bh8WEE73MFyyvflTOuOD-40" style="edgeStyle=orthogonalEdgeStyle;rounded=0;orthogonalLoop=1;jettySize=auto;html=1;exitX=0.5;exitY=0;exitDx=0;exitDy=0;entryX=0.5;entryY=1;entryDx=0;entryDy=0;" edge="1" parent="1">
          <mxGeometry relative="1" as="geometry">
            <mxPoint x="1107" y="1012.5" as="sourcePoint" />
            <mxPoint x="1107" y="972.5" as="targetPoint" />
          </mxGeometry>
        </mxCell>
        <mxCell id="Bh8WEE73MFyyvflTOuOD-43" style="edgeStyle=orthogonalEdgeStyle;rounded=0;orthogonalLoop=1;jettySize=auto;html=1;exitX=0.5;exitY=0;exitDx=0;exitDy=0;entryX=0.5;entryY=1;entryDx=0;entryDy=0;" edge="1" parent="1">
          <mxGeometry relative="1" as="geometry">
            <mxPoint x="1241" y="1012.5" as="sourcePoint" />
            <mxPoint x="1241" y="972.5" as="targetPoint" />
          </mxGeometry>
        </mxCell>
        <mxCell id="Bh8WEE73MFyyvflTOuOD-46" style="edgeStyle=orthogonalEdgeStyle;rounded=0;orthogonalLoop=1;jettySize=auto;html=1;exitX=0.5;exitY=0;exitDx=0;exitDy=0;entryX=0.5;entryY=1;entryDx=0;entryDy=0;" edge="1" parent="1">
          <mxGeometry relative="1" as="geometry">
            <mxPoint x="1375" y="1012.5" as="sourcePoint" />
            <mxPoint x="1375" y="972.5" as="targetPoint" />
          </mxGeometry>
        </mxCell>
        <mxCell id="Bh8WEE73MFyyvflTOuOD-49" style="edgeStyle=orthogonalEdgeStyle;rounded=0;orthogonalLoop=1;jettySize=auto;html=1;exitX=0.5;exitY=0;exitDx=0;exitDy=0;entryX=0.5;entryY=1;entryDx=0;entryDy=0;" edge="1" parent="1">
          <mxGeometry relative="1" as="geometry">
            <mxPoint x="1505.5" y="1012.5" as="sourcePoint" />
            <mxPoint x="1505.5" y="972.5" as="targetPoint" />
          </mxGeometry>
        </mxCell>
        <mxCell id="Bh8WEE73MFyyvflTOuOD-51" value="&lt;span style=&quot;font-size: 16px;&quot;&gt;Принадлежит курсу&lt;/span&gt;" style="text;html=1;align=center;verticalAlign=middle;resizable=0;points=[];autosize=1;strokeColor=none;fillColor=none;" vertex="1" parent="1">
          <mxGeometry x="1151" y="840" width="170" height="30" as="geometry" />
        </mxCell>
        <mxCell id="Q2dRCypDQ9gvHWXwV8JC-1" value="Война и мир" style="whiteSpace=wrap;html=1;" vertex="1" parent="1">
          <mxGeometry x="1196" y="885" width="90" height="87.5" as="geometry" />
        </mxCell>
        <mxCell id="Q2dRCypDQ9gvHWXwV8JC-2" value="1" style="whiteSpace=wrap;html=1;" vertex="1" parent="1">
          <mxGeometry x="1221" y="885" width="40" height="17.5" as="geometry" />
        </mxCell>
        <mxCell id="Q2dRCypDQ9gvHWXwV8JC-3" value="Гарри Поттер и философский камень" style="whiteSpace=wrap;html=1;" vertex="1" parent="1">
          <mxGeometry x="1326" y="885" width="90" height="87.5" as="geometry" />
        </mxCell>
        <mxCell id="Q2dRCypDQ9gvHWXwV8JC-4" value="2" style="whiteSpace=wrap;html=1;" vertex="1" parent="1">
          <mxGeometry x="1351" y="885" width="40" height="20" as="geometry" />
        </mxCell>
        <mxCell id="Q2dRCypDQ9gvHWXwV8JC-5" value="Код да Винчи" style="whiteSpace=wrap;html=1;" vertex="1" parent="1">
          <mxGeometry x="1461" y="885" width="90" height="87.5" as="geometry" />
        </mxCell>
        <mxCell id="Q2dRCypDQ9gvHWXwV8JC-6" value="3" style="whiteSpace=wrap;html=1;" vertex="1" parent="1">
          <mxGeometry x="1486" y="885" width="40" height="20" as="geometry" />
        </mxCell>
        <mxCell id="Q2dRCypDQ9gvHWXwV8JC-7" value="1984" style="whiteSpace=wrap;html=1;" vertex="1" parent="1">
          <mxGeometry x="935" y="1120" width="90" height="87.5" as="geometry" />
        </mxCell>
        <mxCell id="Q2dRCypDQ9gvHWXwV8JC-8" value="4" style="whiteSpace=wrap;html=1;" vertex="1" parent="1">
          <mxGeometry x="960" y="1120" width="40" height="20" as="geometry" />
        </mxCell>
        <mxCell id="Q2dRCypDQ9gvHWXwV8JC-9" value="Преступление и наказание" style="whiteSpace=wrap;html=1;" vertex="1" parent="1">
          <mxGeometry x="1061" y="1120" width="90" height="87.5" as="geometry" />
        </mxCell>
        <mxCell id="Q2dRCypDQ9gvHWXwV8JC-10" value="5" style="whiteSpace=wrap;html=1;" vertex="1" parent="1">
          <mxGeometry x="1086" y="1120" width="40" height="20" as="geometry" />
        </mxCell>
        <mxCell id="Q2dRCypDQ9gvHWXwV8JC-11" value="Мастер и Маргарита" style="whiteSpace=wrap;html=1;" vertex="1" parent="1">
          <mxGeometry x="1196" y="1117.5" width="90" height="90" as="geometry" />
        </mxCell>
        <mxCell id="Q2dRCypDQ9gvHWXwV8JC-12" value="6" style="whiteSpace=wrap;html=1;" vertex="1" parent="1">
          <mxGeometry x="1221" y="1117.5" width="40" height="20" as="geometry" />
        </mxCell>
        <mxCell id="Q2dRCypDQ9gvHWXwV8JC-13" value="Анна Каренина" style="whiteSpace=wrap;html=1;" vertex="1" parent="1">
          <mxGeometry x="1331" y="1117.5" width="90" height="90" as="geometry" />
        </mxCell>
        <mxCell id="Q2dRCypDQ9gvHWXwV8JC-14" value="7" style="whiteSpace=wrap;html=1;" vertex="1" parent="1">
          <mxGeometry x="1356" y="1117.5" width="40" height="20" as="geometry" />
        </mxCell>
        <mxCell id="Q2dRCypDQ9gvHWXwV8JC-15" value="Унесенные ветром" style="whiteSpace=wrap;html=1;" vertex="1" parent="1">
          <mxGeometry x="1461" y="1117.5" width="90" height="90" as="geometry" />
        </mxCell>
        <mxCell id="Q2dRCypDQ9gvHWXwV8JC-16" value="8" style="whiteSpace=wrap;html=1;" vertex="1" parent="1">
          <mxGeometry x="1486" y="1117.5" width="40" height="20" as="geometry" />
        </mxCell>
        <mxCell id="Q2dRCypDQ9gvHWXwV8JC-17" value="Алиса в стране чудес" style="whiteSpace=wrap;html=1;" vertex="1" parent="1">
          <mxGeometry x="1146" y="1350" width="90" height="90" as="geometry" />
        </mxCell>
        <mxCell id="Q2dRCypDQ9gvHWXwV8JC-18" value="9" style="whiteSpace=wrap;html=1;" vertex="1" parent="1">
          <mxGeometry x="1171" y="1350" width="40" height="20" as="geometry" />
        </mxCell>
        <mxCell id="Q2dRCypDQ9gvHWXwV8JC-19" value="Остров сокровищ" style="whiteSpace=wrap;html=1;" vertex="1" parent="1">
          <mxGeometry x="1246" y="1350.5" width="90" height="90" as="geometry" />
        </mxCell>
        <mxCell id="Q2dRCypDQ9gvHWXwV8JC-20" value="10" style="whiteSpace=wrap;html=1;" vertex="1" parent="1">
          <mxGeometry x="1271" y="1350.5" width="40" height="20" as="geometry" />
        </mxCell>
        <mxCell id="Hv2nt-5g9eIffvhGT3wd-1" value="Математический анализ" style="shape=hexagon;perimeter=hexagonPerimeter2;whiteSpace=wrap;html=1;fixedSize=1;" vertex="1" parent="1">
          <mxGeometry x="916" y="1010" width="120" height="70" as="geometry" />
        </mxCell>
        <mxCell id="Hv2nt-5g9eIffvhGT3wd-3" value="2" style="shape=hexagon;perimeter=hexagonPerimeter2;whiteSpace=wrap;html=1;fixedSize=1;size=10;" vertex="1" parent="1">
          <mxGeometry x="1066" y="1010" width="40" height="20" as="geometry" />
        </mxCell>
        <mxCell id="Hv2nt-5g9eIffvhGT3wd-5" value="Физика" style="shape=hexagon;perimeter=hexagonPerimeter2;whiteSpace=wrap;html=1;fixedSize=1;" vertex="1" parent="1">
          <mxGeometry x="1046" y="1010" width="120" height="70" as="geometry" />
        </mxCell>
        <mxCell id="Hv2nt-5g9eIffvhGT3wd-6" value="2" style="shape=hexagon;perimeter=hexagonPerimeter2;whiteSpace=wrap;html=1;fixedSize=1;size=10;" vertex="1" parent="1">
          <mxGeometry x="1086" y="1010" width="40" height="20" as="geometry" />
        </mxCell>
        <mxCell id="Hv2nt-5g9eIffvhGT3wd-7" value="Биология" style="shape=hexagon;perimeter=hexagonPerimeter2;whiteSpace=wrap;html=1;fixedSize=1;" vertex="1" parent="1">
          <mxGeometry x="1316" y="1010" width="120" height="70" as="geometry" />
        </mxCell>
        <mxCell id="Hv2nt-5g9eIffvhGT3wd-8" value="Общая химия" style="shape=hexagon;perimeter=hexagonPerimeter2;whiteSpace=wrap;html=1;fixedSize=1;" vertex="1" parent="1">
          <mxGeometry x="1180" y="1010" width="120" height="70" as="geometry" />
        </mxCell>
        <mxCell id="Hv2nt-5g9eIffvhGT3wd-9" value="История" style="shape=hexagon;perimeter=hexagonPerimeter2;whiteSpace=wrap;html=1;fixedSize=1;" vertex="1" parent="1">
          <mxGeometry x="1446" y="1010" width="120" height="70" as="geometry" />
        </mxCell>
        <mxCell id="Hv2nt-5g9eIffvhGT3wd-10" value="3" style="shape=hexagon;perimeter=hexagonPerimeter2;whiteSpace=wrap;html=1;fixedSize=1;size=10;" vertex="1" parent="1">
          <mxGeometry x="1221" y="1010" width="40" height="20" as="geometry" />
        </mxCell>
        <mxCell id="Hv2nt-5g9eIffvhGT3wd-11" value="4" style="shape=hexagon;perimeter=hexagonPerimeter2;whiteSpace=wrap;html=1;fixedSize=1;size=10;" vertex="1" parent="1">
          <mxGeometry x="1356" y="1010" width="40" height="20" as="geometry" />
        </mxCell>
        <mxCell id="Hv2nt-5g9eIffvhGT3wd-12" value="5" style="shape=hexagon;perimeter=hexagonPerimeter2;whiteSpace=wrap;html=1;fixedSize=1;size=10;" vertex="1" parent="1">
          <mxGeometry x="1486" y="1010" width="40" height="20" as="geometry" />
        </mxCell>
        <mxCell id="Hv2nt-5g9eIffvhGT3wd-13" style="edgeStyle=orthogonalEdgeStyle;rounded=0;orthogonalLoop=1;jettySize=auto;html=1;exitX=0.5;exitY=1;exitDx=0;exitDy=0;" edge="1" parent="1">
          <mxGeometry relative="1" as="geometry">
            <mxPoint x="1196" y="1296" as="sourcePoint" />
            <mxPoint x="1196" y="1296" as="targetPoint" />
          </mxGeometry>
        </mxCell>
        <mxCell id="Hv2nt-5g9eIffvhGT3wd-14" value="Информатика" style="shape=hexagon;perimeter=hexagonPerimeter2;whiteSpace=wrap;html=1;fixedSize=1;" vertex="1" parent="1">
          <mxGeometry x="916" y="1241" width="120" height="70" as="geometry" />
        </mxCell>
        <mxCell id="Hv2nt-5g9eIffvhGT3wd-15" value="Экономика" style="shape=hexagon;perimeter=hexagonPerimeter2;whiteSpace=wrap;html=1;fixedSize=1;" vertex="1" parent="1">
          <mxGeometry x="1446" y="1241" width="120" height="70" as="geometry" />
        </mxCell>
        <mxCell id="Hv2nt-5g9eIffvhGT3wd-16" value="Психология" style="shape=hexagon;perimeter=hexagonPerimeter2;whiteSpace=wrap;html=1;fixedSize=1;" vertex="1" parent="1">
          <mxGeometry x="1316" y="1241" width="120" height="70" as="geometry" />
        </mxCell>
        <mxCell id="Hv2nt-5g9eIffvhGT3wd-17" value="Социология" style="shape=hexagon;perimeter=hexagonPerimeter2;whiteSpace=wrap;html=1;fixedSize=1;" vertex="1" parent="1">
          <mxGeometry x="1180" y="1241" width="120" height="70" as="geometry" />
        </mxCell>
        <mxCell id="Hv2nt-5g9eIffvhGT3wd-18" value="Философия" style="shape=hexagon;perimeter=hexagonPerimeter2;whiteSpace=wrap;html=1;fixedSize=1;" vertex="1" parent="1">
          <mxGeometry x="1046" y="1241" width="120" height="70" as="geometry" />
        </mxCell>
        <mxCell id="Hv2nt-5g9eIffvhGT3wd-19" value="6" style="shape=hexagon;perimeter=hexagonPerimeter2;whiteSpace=wrap;html=1;fixedSize=1;size=10;" vertex="1" parent="1">
          <mxGeometry x="956" y="1241" width="40" height="20" as="geometry" />
        </mxCell>
        <mxCell id="Hv2nt-5g9eIffvhGT3wd-20" value="7" style="shape=hexagon;perimeter=hexagonPerimeter2;whiteSpace=wrap;html=1;fixedSize=1;size=10;" vertex="1" parent="1">
          <mxGeometry x="1086" y="1241" width="40" height="20" as="geometry" />
        </mxCell>
        <mxCell id="Hv2nt-5g9eIffvhGT3wd-21" value="8" style="shape=hexagon;perimeter=hexagonPerimeter2;whiteSpace=wrap;html=1;fixedSize=1;size=10;" vertex="1" parent="1">
          <mxGeometry x="1220" y="1241" width="40" height="20" as="geometry" />
        </mxCell>
        <mxCell id="Hv2nt-5g9eIffvhGT3wd-22" value="9" style="shape=hexagon;perimeter=hexagonPerimeter2;whiteSpace=wrap;html=1;fixedSize=1;size=10;" vertex="1" parent="1">
          <mxGeometry x="1356" y="1241" width="40" height="20" as="geometry" />
        </mxCell>
        <mxCell id="Hv2nt-5g9eIffvhGT3wd-23" value="10" style="shape=hexagon;perimeter=hexagonPerimeter2;whiteSpace=wrap;html=1;fixedSize=1;size=10;" vertex="1" parent="1">
          <mxGeometry x="1486" y="1241" width="40" height="20" as="geometry" />
        </mxCell>
        <mxCell id="Hv2nt-5g9eIffvhGT3wd-24" value="Война и мир" style="whiteSpace=wrap;html=1;" vertex="1" parent="1">
          <mxGeometry x="1061" y="885" width="90" height="87.5" as="geometry" />
        </mxCell>
        <mxCell id="Hv2nt-5g9eIffvhGT3wd-25" value="1" style="whiteSpace=wrap;html=1;" vertex="1" parent="1">
          <mxGeometry x="1086" y="885" width="40" height="17.5" as="geometry" />
        </mxCell>
        <mxCell id="Hv2nt-5g9eIffvhGT3wd-26" style="edgeStyle=orthogonalEdgeStyle;rounded=0;orthogonalLoop=1;jettySize=auto;html=1;exitX=0.5;exitY=0;exitDx=0;exitDy=0;entryX=0.5;entryY=1;entryDx=0;entryDy=0;" edge="1" parent="1">
          <mxGeometry relative="1" as="geometry">
            <mxPoint x="976.5" y="1240.5" as="sourcePoint" />
            <mxPoint x="977" y="1207.5" as="targetPoint" />
          </mxGeometry>
        </mxCell>
        <mxCell id="Hv2nt-5g9eIffvhGT3wd-27" style="edgeStyle=orthogonalEdgeStyle;rounded=0;orthogonalLoop=1;jettySize=auto;html=1;exitX=0.5;exitY=0;exitDx=0;exitDy=0;entryX=0.5;entryY=1;entryDx=0;entryDy=0;" edge="1" parent="1">
          <mxGeometry relative="1" as="geometry">
            <mxPoint x="1240" y="1241" as="sourcePoint" />
            <mxPoint x="1240.5" y="1208" as="targetPoint" />
          </mxGeometry>
        </mxCell>
        <mxCell id="Hv2nt-5g9eIffvhGT3wd-28" style="edgeStyle=orthogonalEdgeStyle;rounded=0;orthogonalLoop=1;jettySize=auto;html=1;exitX=0.5;exitY=0;exitDx=0;exitDy=0;entryX=0.5;entryY=1;entryDx=0;entryDy=0;" edge="1" parent="1">
          <mxGeometry relative="1" as="geometry">
            <mxPoint x="1505.5" y="1240.5" as="sourcePoint" />
            <mxPoint x="1506" y="1207.5" as="targetPoint" />
          </mxGeometry>
        </mxCell>
        <mxCell id="Hv2nt-5g9eIffvhGT3wd-29" style="edgeStyle=orthogonalEdgeStyle;rounded=0;orthogonalLoop=1;jettySize=auto;html=1;exitX=0.5;exitY=0;exitDx=0;exitDy=0;entryX=0.5;entryY=1;entryDx=0;entryDy=0;" edge="1" parent="1">
          <mxGeometry relative="1" as="geometry">
            <mxPoint x="1375.5" y="1240.5" as="sourcePoint" />
            <mxPoint x="1376" y="1207.5" as="targetPoint" />
          </mxGeometry>
        </mxCell>
      </root>
    </mxGraphModel>
  </diagram>
</mxfile>
